<svg width="12" height="14" viewBox="0 0 12 14" fill="none" xmlns="http://www.w3.org/2000/svg">
    <path d="M1 0.613281H7.44272C8.29708 0.613281 9.11645 0.952674 9.72057 1.5568C10.3247 2.16092 10.6641 2.98028 10.6641 3.83464C10.6641 4.689 10.3247 5.50837 9.72057 6.11249C9.11645 6.71661 8.29708 7.056 7.44272 7.056H1V0.613281Z" stroke="#777777" stroke-linecap="round" stroke-linejoin="round"/>
    <path d="M1 7.05469H8.24806C9.10242 7.05469 9.92179 7.39408 10.5259 7.9982C11.13 8.60232 11.4694 9.42169 11.4694 10.276C11.4694 11.1304 11.13 11.9498 10.5259 12.5539C9.92179 13.158 9.10242 13.4974 8.24806 13.4974H1V7.05469Z" stroke="#777777" stroke-linecap="round" stroke-linejoin="round"/>
</svg>
