<svg width="32" height="32" viewBox="0 0 32 32" fill="none" xmlns="http://www.w3.org/2000/svg">
    <circle cx="16" cy="16" r="16" fill="#CACCCF"/>
    <path d="M23.3332 20.6667C23.3332 21.0203 23.1927 21.3594 22.9426 21.6095C22.6926 21.8595 22.3535 22 21.9998 22H9.99984C9.64622 22 9.30708 21.8595 9.05703 21.6095C8.80698 21.3594 8.6665 21.0203 8.6665 20.6667V13.3333C8.6665 12.9797 8.80698 12.6406 9.05703 12.3905C9.30708 12.1405 9.64622 12 9.99984 12H12.6665L13.9998 10H17.9998L19.3332 12H21.9998C22.3535 12 22.6926 12.1405 22.9426 12.3905C23.1927 12.6406 23.3332 12.9797 23.3332 13.3333V20.6667Z" stroke="white" stroke-linecap="round" stroke-linejoin="round"/>
    <path d="M16.0002 19.3333C17.4729 19.3333 18.6668 18.1394 18.6668 16.6667C18.6668 15.1939 17.4729 14 16.0002 14C14.5274 14 13.3335 15.1939 13.3335 16.6667C13.3335 18.1394 14.5274 19.3333 16.0002 19.3333Z" stroke="white" stroke-linecap="round" stroke-linejoin="round"/>
</svg>
