<svg width="16" height="16" viewBox="0 0 16 16" fill="none" xmlns="http://www.w3.org/2000/svg">
    <path d="M13.4479 0.804688H2.17318C1.28363 0.804688 0.5625 1.52581 0.5625 2.41537V13.6901C0.5625 14.5797 1.28363 15.3008 2.17318 15.3008H13.4479C14.3375 15.3008 15.0586 14.5797 15.0586 13.6901V2.41537C15.0586 1.52581 14.3375 0.804688 13.4479 0.804688Z" stroke="#777777" stroke-linecap="round" stroke-linejoin="round"/>
    <path d="M4.99317 6.44336C5.66033 6.44336 6.20118 5.90252 6.20118 5.23535C6.20118 4.56819 5.66033 4.02734 4.99317 4.02734C4.326 4.02734 3.78516 4.56819 3.78516 5.23535C3.78516 5.90252 4.326 6.44336 4.99317 6.44336Z" stroke="#777777" stroke-linecap="round" stroke-linejoin="round"/>
    <path d="M15.0573 10.4681L11.0306 6.44141L2.17188 15.3001" stroke="#777777" stroke-linecap="round" stroke-linejoin="round"/>
</svg>
