<svg width="18" height="18" viewBox="0 0 18 18" fill="none" xmlns="http://www.w3.org/2000/svg">
    <path d="M7.5625 9.80524C7.90836 10.2676 8.34961 10.6502 8.85632 10.927C9.36303 11.2039 9.92336 11.3685 10.4993 11.4097C11.0752 11.451 11.6533 11.3679 12.1943 11.1661C12.7353 10.9643 13.2266 10.6485 13.6348 10.2401L16.0508 7.8241C16.7843 7.06465 17.1902 6.0475 17.181 4.99171C17.1718 3.93592 16.7483 2.92598 16.0017 2.17939C15.2552 1.43281 14.2452 1.00933 13.1894 1.00015C12.1336 0.990978 11.1165 1.39685 10.357 2.13034L8.97185 3.50747" stroke="#777777" stroke-linecap="round" stroke-linejoin="round"/>
    <path d="M10.7827 8.19683C10.4368 7.73446 9.99559 7.35188 9.48887 7.07503C8.98216 6.79819 8.42183 6.63357 7.8459 6.59232C7.26996 6.55107 6.6919 6.63417 6.1509 6.83598C5.60991 7.03778 5.11864 7.35358 4.71043 7.76194L2.29441 10.178C1.56091 10.9374 1.15504 11.9546 1.16421 13.0103C1.17339 14.0661 1.59687 15.0761 2.34346 15.8227C3.09004 16.5693 4.09999 16.9927 5.15577 17.0019C6.21156 17.0111 7.22872 16.6052 7.98816 15.8717L9.36529 14.4946" stroke="#777777" stroke-linecap="round" stroke-linejoin="round"/>
</svg>
